<svg xmlns="http://www.w3.org/2000/svg" version="1.1" xmlns:xlink="http://www.w3.org/1999/xlink" xmlns:svgjs="http://svgjs.com/svgjs" width="1920" height="1040" preserveAspectRatio="none" viewBox="0 0 1920 1040"><g mask="url(&quot;#SvgjsMask1051&quot;)" fill="none"><rect width="1920" height="1040" x="0" y="0" fill="url(#SvgjsLinearGradient1052)"></rect><path d="M2182.24 639.33C2020.26 611.74 1990.24 251.19 1682.06 212.93 1373.88 174.67 1328.48-84.83 1181.88-97.06" stroke="rgba(51,121,194,0.58)" stroke-width="2"></path><path d="M2174.16 853.94C1989.29 833.49 1944.09 478.2 1564.47 427.54 1184.86 376.88 1149.66-42.69 954.79-73.41" stroke="rgba(51,121,194,0.58)" stroke-width="2"></path><path d="M2204.59 964.55C1996.88 943.26 1863.31 571.35 1512.82 496.55 1162.34 421.75 1308.39 42.12 1166.94-24.49" stroke="rgba(51,121,194,0.58)" stroke-width="2"></path><path d="M1991.9 299.81C1828.95 324.93 1746.95 718.95 1480.18 715.81 1213.41 712.67 1171.58 83.28 968.46-2.49" stroke="rgba(51,121,194,0.58)" stroke-width="2"></path><path d="M1973.93 838.18C1771.68 831.32 1580.52 564.48 1231.46 515.78 882.39 467.08 1010.05 41.05 860.22-26.21" stroke="rgba(51,121,194,0.58)" stroke-width="2"></path></g><defs><mask id="SvgjsMask1051"><rect width="1920" height="1040" fill="#ffffff"></rect></mask><linearGradient x1="11.46%" y1="-21.15%" x2="88.54%" y2="121.15%" gradientUnits="userSpaceOnUse" id="SvgjsLinearGradient1052"><stop stop-color="#0e2a47" offset="0"></stop><stop stop-color="rgba(2, 59, 133, 1)" offset="1"></stop></linearGradient></defs></svg>